<svg viewBox="0 0 24 24" fill="none" version="1.1" xmlns="http://www.w3.org/2000/svg" xmlns:xlink="http://www.w3.org/1999/xlink">
  <path fill="var(--text-accent, #24F2BFFF)" d="M21.72 14.363a10.008 10.008 0 0 1-9.725 7.639 9.988 9.988 0 0 1-7.57-3.46 11.875 11.875 0 0 0 6.82 2.131c4.593 0 8.566-2.571 10.474-6.31Zm-9.317-12.36c1.478.061 2.96.445 4.276 1.136l-.027.064a10.34 10.34 0 0 0-3.463-.587c-3.118 0-5.85 1.342-7.375 3.355-.67.816-1.153 1.742-1.342 2.707-.098.534-.1 1.092.064 1.612.336 1.007 1.159 1.897 2.205 2.165.402.1.822.15 1.236.117l-.002-.001c2.27-.183 4.232-1.55 5.946-2.952.767-.642 2.639-2.411 2.077-3.501a.035.035 0 0 0-.046-.016c-1.77.813-3.417 1.862-4.997 2.993a.035.035 0 0 1-.048-.007 45.351 45.351 0 0 0-2.3-2.771.035.035 0 0 1 .005-.052c1.958-1.467 4.277-2.634 6.756-2.758.165-.004.35 0 .521-.001h.002c.906.04 1.855.272 2.584.844a9.868 9.868 0 0 1 3.069 4.603c.422 1.353.555 2.794.383 4.2h-.08a7.906 7.906 0 0 0-2-4.524c-.019-.02-.04-.036-.061-.054-.007-.006-.014-.016-.019-.005a.04.04 0 0 0-.003.012c-.004.11.003.22-.01.329v.002c-.09 1.636-.833 3.184-1.84 4.457-2.245 2.766-5.956 4.636-9.501 4.895-.662.038-1.33.043-1.988-.045-2.786-.416-4.229-2.708-4.378-5.378v-.012c-.01-.017-.005-.04-.008-.06l.003-.003c-.01-.017-.004-.04-.006-.058-.009-.081-.013-.168-.018-.251 0-.03-.004-.07-.004-.103v-.003c-.003-.048-.005-.103-.006-.154l.001-.014v-.003a.041.041 0 0 1-.003-.014c-.183-5.33 4.14-9.879 9.437-10.152.314-.022.641-.01.96-.011Z"></path>
</svg>
